<svg width="175" height="51" viewBox="0 0 175 51" fill="none" xmlns="http://www.w3.org/2000/svg">
    <defs>
        <linearGradient id="paint0_linear_3_40" x1="22" y1="20" x2="25" y2="15.5" gradientUnits="userSpaceOnUse">
            <stop stop-color="#29222F" />
            <stop offset="1" stop-color="#29222F" stop-opacity="0" />
        </linearGradient>
        <linearGradient id="paint1_linear_3_40" x1="14" y1="26" x2="11" y2="30.5" gradientUnits="userSpaceOnUse">
            <stop stop-color="#29222F" />
            <stop offset="1" stop-color="#29222F" stop-opacity="0" />
        </linearGradient>
    </defs>
    <path
        d="M73.23 10.744C73.23 11.152 73.4 11.4637 73.74 11.679C74.0913 11.8943 74.726 12.036 75.644 12.104C76.63 12.1833 77.378 12.4213 77.888 12.818C78.4093 13.2033 78.67 13.77 78.67 14.518V14.62C78.67 15.028 78.585 15.3963 78.415 15.725C78.2563 16.0423 78.0297 16.3143 77.735 16.541C77.4517 16.7677 77.1003 16.9377 76.681 17.051C76.273 17.1757 75.8253 17.238 75.338 17.238C74.6807 17.238 74.114 17.153 73.638 16.983C73.1733 16.8017 72.7823 16.5693 72.465 16.286C72.159 15.9913 71.9267 15.6627 71.768 15.3C71.6093 14.926 71.5187 14.552 71.496 14.178L72.754 13.872C72.8107 14.518 73.06 15.0393 73.502 15.436C73.944 15.8213 74.5333 16.014 75.27 16.014C75.8933 16.014 76.392 15.895 76.766 15.657C77.1513 15.4077 77.344 15.062 77.344 14.62C77.344 14.144 77.157 13.804 76.783 13.6C76.409 13.396 75.8027 13.2657 74.964 13.209C73.9893 13.141 73.2413 12.9143 72.72 12.529C72.1987 12.1437 71.938 11.5827 71.938 10.846V10.744C71.938 10.3473 72.023 10.0017 72.193 9.707C72.363 9.401 72.5897 9.146 72.873 8.942C73.1677 8.738 73.4963 8.585 73.859 8.483C74.2217 8.381 74.6013 8.33 74.998 8.33C75.5533 8.33 76.0407 8.40933 76.46 8.568C76.8793 8.71533 77.2307 8.91367 77.514 9.163C77.7973 9.401 78.0127 9.67867 78.16 9.996C78.3187 10.3133 78.4207 10.6307 78.466 10.948L77.208 11.254C77.1513 10.71 76.9303 10.285 76.545 9.979C76.171 9.673 75.678 9.52 75.066 9.52C74.828 9.52 74.5957 9.54833 74.369 9.605C74.1537 9.65033 73.961 9.724 73.791 9.826C73.621 9.928 73.485 10.0583 73.383 10.217C73.281 10.3643 73.23 10.54 73.23 10.744ZM81.5992 8.568H84.2512V5.1H85.5772V8.568H88.8412V9.792H85.5772V15.266C85.5772 15.606 85.7302 15.776 86.0362 15.776H88.4332V17H85.5602C85.1748 17 84.8575 16.8753 84.6082 16.626C84.3702 16.3767 84.2512 16.0593 84.2512 15.674V9.792H81.5992V8.568ZM98.4174 15.572H98.2134C97.9414 16.1387 97.5617 16.558 97.0744 16.83C96.5984 17.102 96.094 17.238 95.5614 17.238C95.006 17.238 94.4904 17.1473 94.0144 16.966C93.5384 16.7733 93.119 16.4957 92.7564 16.133C92.405 15.759 92.1274 15.3057 91.9234 14.773C91.7194 14.2403 91.6174 13.6227 91.6174 12.92V12.648C91.6174 11.9567 91.7194 11.3447 91.9234 10.812C92.1274 10.2793 92.405 9.83167 92.7564 9.469C93.119 9.095 93.5384 8.81167 94.0144 8.619C94.4904 8.42633 94.9947 8.33 95.5274 8.33C96.1054 8.33 96.6267 8.46033 97.0914 8.721C97.5674 8.97033 97.9414 9.36133 98.2134 9.894H98.4174V8.568H99.7434V15.266C99.7434 15.606 99.8964 15.776 100.202 15.776H100.627V17H99.7264C99.341 17 99.0237 16.8753 98.7744 16.626C98.5364 16.3767 98.4174 16.0593 98.4174 15.674V15.572ZM95.6974 15.98C96.094 15.98 96.4567 15.9063 96.7854 15.759C97.1254 15.6117 97.4144 15.402 97.6524 15.13C97.8904 14.858 98.0774 14.535 98.2134 14.161C98.3494 13.7757 98.4174 13.3507 98.4174 12.886V12.682C98.4174 12.2287 98.3494 11.815 98.2134 11.441C98.0774 11.0557 97.8847 10.727 97.6354 10.455C97.3974 10.183 97.1084 9.97333 96.7684 9.826C96.4397 9.66733 96.0827 9.588 95.6974 9.588C95.3007 9.588 94.938 9.66167 94.6094 9.809C94.2807 9.95633 93.9917 10.166 93.7424 10.438C93.5044 10.6987 93.3174 11.0217 93.1814 11.407C93.0454 11.781 92.9774 12.1947 92.9774 12.648V12.92C92.9774 13.8833 93.2267 14.637 93.7254 15.181C94.2354 15.7137 94.8927 15.98 95.6974 15.98ZM110.595 14.008C110.504 14.4727 110.345 14.9033 110.119 15.3C109.903 15.6967 109.626 16.0423 109.286 16.337C108.946 16.6203 108.549 16.8413 108.096 17C107.642 17.1587 107.138 17.238 106.583 17.238C105.993 17.238 105.432 17.1417 104.9 16.949C104.378 16.7563 103.919 16.4787 103.523 16.116C103.126 15.742 102.809 15.2887 102.571 14.756C102.344 14.2233 102.231 13.6113 102.231 12.92V12.716C102.231 12.036 102.344 11.424 102.571 10.88C102.809 10.336 103.126 9.877 103.523 9.503C103.919 9.129 104.378 8.84 104.9 8.636C105.432 8.432 105.993 8.33 106.583 8.33C107.115 8.33 107.608 8.40933 108.062 8.568C108.515 8.72667 108.912 8.95333 109.252 9.248C109.603 9.53133 109.886 9.87133 110.102 10.268C110.328 10.6647 110.481 11.0953 110.561 11.56L109.235 11.866C109.201 11.5713 109.116 11.288 108.98 11.016C108.855 10.7327 108.679 10.489 108.453 10.285C108.237 10.0697 107.971 9.89967 107.654 9.775C107.336 9.65033 106.968 9.588 106.549 9.588C106.141 9.588 105.755 9.66733 105.393 9.826C105.041 9.97333 104.73 10.1887 104.458 10.472C104.186 10.744 103.97 11.0727 103.812 11.458C103.664 11.8433 103.591 12.2627 103.591 12.716V12.92C103.591 13.396 103.664 13.8267 103.812 14.212C103.97 14.586 104.186 14.9033 104.458 15.164C104.73 15.4247 105.047 15.6287 105.41 15.776C105.772 15.912 106.163 15.98 106.583 15.98C107.002 15.98 107.365 15.9177 107.671 15.793C107.988 15.657 108.254 15.487 108.47 15.283C108.696 15.0677 108.872 14.824 108.997 14.552C109.133 14.28 109.223 13.9967 109.269 13.702L110.595 14.008ZM115.292 12.07H115.581L118.794 8.568H120.426V8.67L116.924 12.529V12.835L120.834 16.898V17H119.202L115.615 13.294H115.292V17H113.966V5.1H115.292V12.07ZM123.236 8.568H125.888V5.1H127.214V8.568H130.478V9.792H127.214V15.266C127.214 15.606 127.367 15.776 127.673 15.776H130.07V17H127.197C126.812 17 126.494 16.8753 126.245 16.626C126.007 16.3767 125.888 16.0593 125.888 15.674V9.792H123.236V8.568ZM133.458 8.568H136.518V9.69H136.722C136.937 9.22533 137.243 8.88533 137.64 8.67C138.037 8.44333 138.49 8.33 139 8.33C139.85 8.33 140.536 8.60767 141.057 9.163C141.578 9.71833 141.856 10.5287 141.89 11.594L140.496 11.798C140.496 11.016 140.309 10.455 139.935 10.115C139.561 9.76367 139.102 9.588 138.558 9.588C138.207 9.588 137.901 9.656 137.64 9.792C137.391 9.928 137.181 10.115 137.011 10.353C136.841 10.591 136.716 10.8687 136.637 11.186C136.558 11.5033 136.518 11.8433 136.518 12.206V15.776H138.66V17H133.254V15.776H135.192V9.792H133.458V8.568ZM150.463 15.572H150.259C149.987 16.1387 149.608 16.558 149.12 16.83C148.644 17.102 148.14 17.238 147.607 17.238C147.052 17.238 146.536 17.1473 146.06 16.966C145.584 16.7733 145.165 16.4957 144.802 16.133C144.451 15.759 144.173 15.3057 143.969 14.773C143.765 14.2403 143.663 13.6227 143.663 12.92V12.648C143.663 11.9567 143.765 11.3447 143.969 10.812C144.173 10.2793 144.451 9.83167 144.802 9.469C145.165 9.095 145.584 8.81167 146.06 8.619C146.536 8.42633 147.041 8.33 147.573 8.33C148.151 8.33 148.673 8.46033 149.137 8.721C149.613 8.97033 149.987 9.36133 150.259 9.894H150.463V8.568H151.789V15.266C151.789 15.606 151.942 15.776 152.248 15.776H152.673V17H151.772C151.387 17 151.07 16.8753 150.82 16.626C150.582 16.3767 150.463 16.0593 150.463 15.674V15.572ZM147.743 15.98C148.14 15.98 148.503 15.9063 148.831 15.759C149.171 15.6117 149.46 15.402 149.698 15.13C149.936 14.858 150.123 14.535 150.259 14.161C150.395 13.7757 150.463 13.3507 150.463 12.886V12.682C150.463 12.2287 150.395 11.815 150.259 11.441C150.123 11.0557 149.931 10.727 149.681 10.455C149.443 10.183 149.154 9.97333 148.814 9.826C148.486 9.66733 148.129 9.588 147.743 9.588C147.347 9.588 146.984 9.66167 146.655 9.809C146.327 9.95633 146.038 10.166 145.788 10.438C145.55 10.6987 145.363 11.0217 145.227 11.407C145.091 11.781 145.023 12.1947 145.023 12.648V12.92C145.023 13.8833 145.273 14.637 145.771 15.181C146.281 15.7137 146.939 15.98 147.743 15.98ZM162.64 14.008C162.55 14.4727 162.391 14.9033 162.164 15.3C161.949 15.6967 161.671 16.0423 161.331 16.337C160.991 16.6203 160.595 16.8413 160.141 17C159.688 17.1587 159.184 17.238 158.628 17.238C158.039 17.238 157.478 17.1417 156.945 16.949C156.424 16.7563 155.965 16.4787 155.568 16.116C155.172 15.742 154.854 15.2887 154.616 14.756C154.39 14.2233 154.276 13.6113 154.276 12.92V12.716C154.276 12.036 154.39 11.424 154.616 10.88C154.854 10.336 155.172 9.877 155.568 9.503C155.965 9.129 156.424 8.84 156.945 8.636C157.478 8.432 158.039 8.33 158.628 8.33C159.161 8.33 159.654 8.40933 160.107 8.568C160.561 8.72667 160.957 8.95333 161.297 9.248C161.649 9.53133 161.932 9.87133 162.147 10.268C162.374 10.6647 162.527 11.0953 162.606 11.56L161.28 11.866C161.246 11.5713 161.161 11.288 161.025 11.016C160.901 10.7327 160.725 10.489 160.498 10.285C160.283 10.0697 160.017 9.89967 159.699 9.775C159.382 9.65033 159.014 9.588 158.594 9.588C158.186 9.588 157.801 9.66733 157.438 9.826C157.087 9.97333 156.775 10.1887 156.503 10.472C156.231 10.744 156.016 11.0727 155.857 11.458C155.71 11.8433 155.636 12.2627 155.636 12.716V12.92C155.636 13.396 155.71 13.8267 155.857 14.212C156.016 14.586 156.231 14.9033 156.503 15.164C156.775 15.4247 157.093 15.6287 157.455 15.776C157.818 15.912 158.209 15.98 158.628 15.98C159.048 15.98 159.41 15.9177 159.716 15.793C160.034 15.657 160.3 15.487 160.515 15.283C160.742 15.0677 160.918 14.824 161.042 14.552C161.178 14.28 161.269 13.9967 161.314 13.702L162.64 14.008ZM166.131 13.192C166.165 14.0307 166.425 14.705 166.913 15.215C167.4 15.725 168.08 15.98 168.953 15.98C169.349 15.98 169.695 15.9347 169.99 15.844C170.284 15.7533 170.534 15.6287 170.738 15.47C170.953 15.3113 171.123 15.13 171.248 14.926C171.384 14.7107 171.491 14.484 171.571 14.246L172.829 14.586C172.591 15.368 172.149 16.0083 171.503 16.507C170.868 16.9943 170.007 17.238 168.919 17.238C168.318 17.238 167.763 17.136 167.253 16.932C166.754 16.7167 166.323 16.4163 165.961 16.031C165.598 15.6457 165.315 15.1867 165.111 14.654C164.907 14.1213 164.805 13.532 164.805 12.886V12.478C164.805 11.8887 164.907 11.339 165.111 10.829C165.326 10.319 165.621 9.88267 165.995 9.52C166.369 9.146 166.805 8.857 167.304 8.653C167.814 8.43767 168.363 8.33 168.953 8.33C169.644 8.33 170.239 8.46033 170.738 8.721C171.248 8.97033 171.661 9.282 171.979 9.656C172.307 10.03 172.545 10.438 172.693 10.88C172.851 11.322 172.931 11.73 172.931 12.104V13.192H166.131ZM168.953 9.588C168.579 9.588 168.227 9.65033 167.899 9.775C167.581 9.88833 167.298 10.0527 167.049 10.268C166.811 10.4833 166.612 10.7383 166.454 11.033C166.306 11.3163 166.21 11.628 166.165 11.968H171.605C171.582 11.6053 171.491 11.2767 171.333 10.982C171.185 10.6873 170.987 10.438 170.738 10.234C170.5 10.03 170.222 9.87133 169.905 9.758C169.599 9.64467 169.281 9.588 168.953 9.588ZM72.499 41.4H71.173V29.568H72.499V30.894H72.703C72.9977 30.384 73.4057 29.9987 73.927 29.738C74.4483 29.466 75.015 29.33 75.627 29.33C76.1483 29.33 76.6413 29.4263 77.106 29.619C77.5707 29.8117 77.9787 30.0893 78.33 30.452C78.6927 30.8147 78.976 31.2623 79.18 31.795C79.3953 32.3277 79.503 32.934 79.503 33.614V33.954C79.503 34.6453 79.401 35.2573 79.197 35.79C78.993 36.3227 78.7097 36.7703 78.347 37.133C77.9957 37.4957 77.582 37.7733 77.106 37.966C76.63 38.1473 76.1257 38.238 75.593 38.238C75.321 38.238 75.0433 38.204 74.76 38.136C74.4767 38.0793 74.2047 37.9887 73.944 37.864C73.6947 37.728 73.4623 37.5693 73.247 37.388C73.0317 37.1953 72.8503 36.9687 72.703 36.708H72.499V41.4ZM75.321 36.98C75.729 36.98 76.103 36.912 76.443 36.776C76.783 36.6287 77.0777 36.4247 77.327 36.164C77.5877 35.9033 77.786 35.586 77.922 35.212C78.0693 34.838 78.143 34.4187 78.143 33.954V33.614C78.143 33.1607 78.0693 32.7527 77.922 32.39C77.786 32.016 77.5877 31.6987 77.327 31.438C77.0777 31.166 76.7773 30.9563 76.426 30.809C76.086 30.6617 75.7177 30.588 75.321 30.588C74.9243 30.588 74.556 30.6673 74.216 30.826C73.876 30.9733 73.5757 31.183 73.315 31.455C73.0657 31.727 72.8673 32.0557 72.72 32.441C72.5727 32.815 72.499 33.2287 72.499 33.682V33.886C72.499 34.3507 72.5727 34.7757 72.72 35.161C72.8673 35.535 73.0657 35.858 73.315 36.13C73.5757 36.402 73.876 36.6117 74.216 36.759C74.556 36.9063 74.9243 36.98 75.321 36.98ZM88.0082 36.572H87.8042C87.5322 37.1387 87.1525 37.558 86.6652 37.83C86.1892 38.102 85.6848 38.238 85.1522 38.238C84.5968 38.238 84.0812 38.1473 83.6052 37.966C83.1292 37.7733 82.7098 37.4957 82.3472 37.133C81.9958 36.759 81.7182 36.3057 81.5142 35.773C81.3102 35.2403 81.2082 34.6227 81.2082 33.92V33.648C81.2082 32.9567 81.3102 32.3447 81.5142 31.812C81.7182 31.2793 81.9958 30.8317 82.3472 30.469C82.7098 30.095 83.1292 29.8117 83.6052 29.619C84.0812 29.4263 84.5855 29.33 85.1182 29.33C85.6962 29.33 86.2175 29.4603 86.6822 29.721C87.1582 29.9703 87.5322 30.3613 87.8042 30.894H88.0082V29.568H89.3342V36.266C89.3342 36.606 89.4872 36.776 89.7932 36.776H90.2182V38H89.3172C88.9318 38 88.6145 37.8753 88.3652 37.626C88.1272 37.3767 88.0082 37.0593 88.0082 36.674V36.572ZM85.2882 36.98C85.6848 36.98 86.0475 36.9063 86.3762 36.759C86.7162 36.6117 87.0052 36.402 87.2432 36.13C87.4812 35.858 87.6682 35.535 87.8042 35.161C87.9402 34.7757 88.0082 34.3507 88.0082 33.886V33.682C88.0082 33.2287 87.9402 32.815 87.8042 32.441C87.6682 32.0557 87.4755 31.727 87.2262 31.455C86.9882 31.183 86.6992 30.9733 86.3592 30.826C86.0305 30.6673 85.6735 30.588 85.2882 30.588C84.8915 30.588 84.5288 30.6617 84.2002 30.809C83.8715 30.9563 83.5825 31.166 83.3332 31.438C83.0952 31.6987 82.9082 32.0217 82.7722 32.407C82.6362 32.781 82.5682 33.1947 82.5682 33.648V33.92C82.5682 34.8833 82.8175 35.637 83.3162 36.181C83.8262 36.7137 84.4835 36.98 85.2882 36.98ZM91.8214 29.568H94.8814V30.69H95.0854C95.3007 30.2253 95.6067 29.8853 96.0034 29.67C96.4 29.4433 96.8534 29.33 97.3634 29.33C98.2134 29.33 98.899 29.6077 99.4204 30.163C99.9417 30.7183 100.219 31.5287 100.253 32.594L98.8594 32.798C98.8594 32.016 98.6724 31.455 98.2984 31.115C97.9244 30.7637 97.4654 30.588 96.9214 30.588C96.57 30.588 96.264 30.656 96.0034 30.792C95.754 30.928 95.5444 31.115 95.3744 31.353C95.2044 31.591 95.0797 31.8687 95.0004 32.186C94.921 32.5033 94.8814 32.8433 94.8814 33.206V36.776H97.0234V38H91.6174V36.776H93.5554V30.792H91.8214V29.568ZM104.458 31.744C104.458 32.152 104.628 32.4637 104.968 32.679C105.319 32.8943 105.954 33.036 106.872 33.104C107.858 33.1833 108.606 33.4213 109.116 33.818C109.637 34.2033 109.898 34.77 109.898 35.518V35.62C109.898 36.028 109.813 36.3963 109.643 36.725C109.484 37.0423 109.257 37.3143 108.963 37.541C108.679 37.7677 108.328 37.9377 107.909 38.051C107.501 38.1757 107.053 38.238 106.566 38.238C105.908 38.238 105.342 38.153 104.866 37.983C104.401 37.8017 104.01 37.5693 103.693 37.286C103.387 36.9913 103.154 36.6627 102.996 36.3C102.837 35.926 102.746 35.552 102.724 35.178L103.982 34.872C104.038 35.518 104.288 36.0393 104.73 36.436C105.172 36.8213 105.761 37.014 106.498 37.014C107.121 37.014 107.62 36.895 107.994 36.657C108.379 36.4077 108.572 36.062 108.572 35.62C108.572 35.144 108.385 34.804 108.011 34.6C107.637 34.396 107.03 34.2657 106.192 34.209C105.217 34.141 104.469 33.9143 103.948 33.529C103.426 33.1437 103.166 32.5827 103.166 31.846V31.744C103.166 31.3473 103.251 31.0017 103.421 30.707C103.591 30.401 103.817 30.146 104.101 29.942C104.395 29.738 104.724 29.585 105.087 29.483C105.449 29.381 105.829 29.33 106.226 29.33C106.781 29.33 107.268 29.4093 107.688 29.568C108.107 29.7153 108.458 29.9137 108.742 30.163C109.025 30.401 109.24 30.6787 109.388 30.996C109.546 31.3133 109.648 31.6307 109.694 31.948L108.436 32.254C108.379 31.71 108.158 31.285 107.773 30.979C107.399 30.673 106.906 30.52 106.294 30.52C106.056 30.52 105.823 30.5483 105.597 30.605C105.381 30.6503 105.189 30.724 105.019 30.826C104.849 30.928 104.713 31.0583 104.611 31.217C104.509 31.3643 104.458 31.54 104.458 31.744ZM114.085 34.192C114.119 35.0307 114.379 35.705 114.867 36.215C115.354 36.725 116.034 36.98 116.907 36.98C117.303 36.98 117.649 36.9347 117.944 36.844C118.238 36.7533 118.488 36.6287 118.692 36.47C118.907 36.3113 119.077 36.13 119.202 35.926C119.338 35.7107 119.445 35.484 119.525 35.246L120.783 35.586C120.545 36.368 120.103 37.0083 119.457 37.507C118.822 37.9943 117.961 38.238 116.873 38.238C116.272 38.238 115.717 38.136 115.207 37.932C114.708 37.7167 114.277 37.4163 113.915 37.031C113.552 36.6457 113.269 36.1867 113.065 35.654C112.861 35.1213 112.759 34.532 112.759 33.886V33.478C112.759 32.8887 112.861 32.339 113.065 31.829C113.28 31.319 113.575 30.8827 113.949 30.52C114.323 30.146 114.759 29.857 115.258 29.653C115.768 29.4377 116.317 29.33 116.907 29.33C117.598 29.33 118.193 29.4603 118.692 29.721C119.202 29.9703 119.615 30.282 119.933 30.656C120.261 31.03 120.499 31.438 120.647 31.88C120.805 32.322 120.885 32.73 120.885 33.104V34.192H114.085ZM116.907 30.588C116.533 30.588 116.181 30.6503 115.853 30.775C115.535 30.8883 115.252 31.0527 115.003 31.268C114.765 31.4833 114.566 31.7383 114.408 32.033C114.26 32.3163 114.164 32.628 114.119 32.968H119.559C119.536 32.6053 119.445 32.2767 119.287 31.982C119.139 31.6873 118.941 31.438 118.692 31.234C118.454 31.03 118.176 30.8713 117.859 30.758C117.553 30.6447 117.235 30.588 116.907 30.588ZM123.049 29.568H126.109V30.69H126.313C126.528 30.2253 126.834 29.8853 127.231 29.67C127.628 29.4433 128.081 29.33 128.591 29.33C129.441 29.33 130.127 29.6077 130.648 30.163C131.169 30.7183 131.447 31.5287 131.481 32.594L130.087 32.798C130.087 32.016 129.9 31.455 129.526 31.115C129.152 30.7637 128.693 30.588 128.149 30.588C127.798 30.588 127.492 30.656 127.231 30.792C126.982 30.928 126.772 31.115 126.602 31.353C126.432 31.591 126.307 31.8687 126.228 32.186C126.149 32.5033 126.109 32.8433 126.109 33.206V36.776H128.251V38H122.845V36.776H124.783V30.792H123.049V29.568Z"
        fill="white" />
    <path opacity="0.25" d="M53 6V38" stroke="white" />
    <path
        d="M17.5039 7.28351C17.8113 7.10783 18.1887 7.10783 18.4961 7.28351L30.4806 14.1318C31.1524 14.5157 31.1524 15.4843 30.4806 15.8682L18.4961 22.7165C18.1887 22.8922 17.8113 22.8922 17.5039 22.7165L5.51942 15.8682C4.84761 15.4843 4.84761 14.5157 5.51943 14.1318L17.5039 7.28351Z"
        stroke="white" stroke-width="7" />
    <path
        d="M4 31L17.5039 38.7165C17.8113 38.8922 18.1887 38.8922 18.4961 38.7165L30.4806 31.8682C31.1524 31.4843 31.1524 30.5157 30.4806 30.1318L18.4961 23.2835C18.1887 23.1078 17.8113 23.1078 17.5039 23.2835L4 31ZM4 31V47"
        stroke="white" stroke-width="7" stroke-linecap="round" stroke-linejoin="round" />
    <path d="M32 27L11 15L21.5 14L35 19.5L32 27Z" fill="url(#paint0_linear_3_40)" fill-opacity="0.5" />
    <path d="M4 19L25 31L14.5 32L1 26.5L4 19Z" fill="url(#paint1_linear_3_40)" fill-opacity="0.5" />
</svg>